<svg xmlns="http://www.w3.org/2000/svg"  viewBox="0 0 523 523" width="50px" height="50px"><path d="M 167.24219 62.591797 A 10.461046 10.461046 0 0 0 156.93945 73.199219 L 156.93945 83.640625 L 146.40039 83.640625 A 10.461046 10.461046 0 1 0 146.40039 104.56055 L 156.93945 104.56055 L 156.93945 115 A 10.461046 10.461046 0 1 0 177.85938 115 L 177.85938 104.56055 L 188.19922 104.56055 A 10.461046 10.461046 0 1 0 188.19922 83.640625 L 177.85938 83.640625 L 177.85938 73.199219 A 10.461046 10.461046 0 0 0 167.24219 62.591797 z M 296.41016 135.65039 L 282.42383 137.64453 C 211.46558 147.76604 156.83984 208.73911 156.83984 282.40039 C 156.83984 363.1552 222.54597 428.85937 303.30078 428.85938 C 376.96207 428.85938 437.93318 374.23559 448.05469 303.27734 L 449.99414 289.6875 L 436.37695 291.42383 C 344.06121 303.19689 282.68427 223.78093 294.23633 149.60938 L 296.41016 135.65039 z M 272.13086 161.05664 C 268.47213 239.86228 332.85454 316.88912 424.7207 313.30078 C 410.99598 367.67781 362.04568 407.93945 303.30078 407.93945 C 233.85559 407.93945 177.75977 351.84558 177.75977 282.40039 C 177.75977 223.75389 217.89227 174.87633 272.13086 161.05664 z"/></svg>